# xmcd
#
# Track frame offsets:
#	150
#	8400
#	20135
#	33276
#	44797
#	56226
#	69044
#	83519
#	96143
#	110873
#
# Disc length: 1619 seconds
#
# Revision: 1
# Processed by: cddbd v1.5.2PL0 Copyright (c) Steve Scherf et al.
# Submitted via: audiograbber 1.83.01
#
DISCID=7b06510a
DTITLE=Buffalo Barfield - From Cornbread to Ida Red
DYEAR=2010
DGENRE=Country
TTITLE0=Take Me Back To Tulsa
TTITLE1=The Cornbread Song
TTITLE2=Corrina, Corrina
TTITLE3=Waltz Across Texas
TTITLE4=Crow Back Chicken
TTITLE5=Toot Toot Song
TTITLE6=Traveling Man
TTITLE7=One Less Heart
TTITLE8=Daddy's Banjo
TTITLE9=Ida Red
EXTD=
EXTT0=
EXTT1=
EXTT2=
EXTT3=
EXTT4=
EXTT5=
EXTT6=
EXTT7=
EXTT8=
EXTT9=
PLAYORDER=
